<?xml version="1.0" encoding="utf-8"?>
<!-- Generator: Adobe Illustrator 24.2.3, SVG Export Plug-In . SVG Version: 6.00 Build 0)  -->
<svg version="1.1" id="Layer_1" xmlns="http://www.w3.org/2000/svg" xmlns:xlink="http://www.w3.org/1999/xlink" x="0px" y="0px"
	 viewBox="0 0 194.7 45.3" style="enable-background:new 0 0 194.7 45.3;" xml:space="preserve">
<style type="text/css">
	.st0{fill:#F9EFE6;}
</style>
<g id="Group_3" transform="translate(0 0)">
	<g id="Group_2">
		<g id="Group_1">
			<path id="Path_1" class="st0" d="M33.7,36.1l8.6,8.5h-9.6l-3.8-3.8c-4,2.9-8.8,4.5-13.7,4.5c-4.4,0-8.1-1.1-10.9-3.3
				c-2.7-2-4.3-5.3-4.2-8.7c0-2.4,0.7-4.7,2.1-6.6C4,24.4,6.4,22.6,9,21.3c-1.5-1.4-2.7-3.1-3.7-4.9c-0.7-1.4-1.1-3-1.1-4.6
				C4.2,8.7,5.6,5.7,7.9,3.8c2.6-2.2,5.9-3.3,9.3-3.1c3.2-0.2,6.4,0.9,8.9,2.9c4,3.4,4.5,9.5,1.2,13.5c-1.5,1.7-4,3.5-7.6,5.3
				l9.6,9.4L33.7,36.1z M7.6,32.6c0,1.9,0.8,3.7,2.3,4.9c1.6,1.3,3.7,2,5.8,1.9c1.6,0,3.2-0.2,4.7-0.7c1.5-0.5,2.9-1.2,4.2-2
				L13.1,25.4c-1.6,0.8-3.1,1.9-4.2,3.2C8,29.8,7.5,31.2,7.6,32.6L7.6,32.6z M17.2,5.9c-1.5,0-2.9,0.5-4,1.5c-1.1,1-1.7,2.5-1.6,4
				c0,1.1,0.3,2.1,0.8,3c0.9,1.4,2,2.7,3.2,3.8c2-0.8,3.9-1.9,5.6-3.4c1-1,1.5-2.4,1.4-3.8c0-1.4-0.5-2.7-1.5-3.6
				C20,6.4,18.6,5.9,17.2,5.9L17.2,5.9z"/>
			<path id="Path_2" class="st0" d="M69.8,45.3c-6.1,0-11-2.1-14.7-6.2c-3.7-4.1-5.6-9.5-5.6-16.2c0-6.6,1.9-12,5.8-16.1
				c3.9-4.1,8.9-6.2,15.1-6.2c4.9,0,8.9,1.2,12.1,3.7c3.2,2.7,5.4,6.4,6,10.5h-7.9c-0.4-2.3-1.6-4.4-3.4-5.9c-2-1.4-4.3-2.1-6.7-2
				c-3.6-0.2-7.1,1.4-9.3,4.2c-2.3,2.8-3.4,6.7-3.4,11.7c0,5,1.1,8.9,3.3,11.8c2.2,2.8,5.7,4.4,9.3,4.3c2.8,0.1,5.5-0.8,7.7-2.5
				c2-1.6,3.1-4,3-6.5v-1.5h-8.4v-5.8H89v22h-6.2l-0.5-6.2c-0.9,2.2-2.6,3.9-4.7,4.9C75.1,44.6,72.5,45.3,69.8,45.3z"/>
			<path id="Path_3" class="st0" d="M105.6,0v44.6h-7.8V0H105.6z"/>
			<path id="Path_4" class="st0" d="M128.5,13.1c4.2-0.2,8.3,1.4,11.3,4.4c2.9,2.9,4.3,6.8,4.3,11.7c0,4.9-1.4,8.8-4.3,11.7
				c-2.8,2.9-6.6,4.4-11.3,4.4c-4.7,0-8.5-1.5-11.3-4.4c-2.8-2.9-4.3-6.8-4.3-11.7c0-4.8,1.4-8.7,4.3-11.7
				C120.2,14.5,124.3,12.9,128.5,13.1z M128.5,18.8c-2.3-0.1-4.4,0.9-5.8,2.7c-1.4,1.8-2.1,4.4-2.1,7.6c0,3.3,0.7,5.8,2.1,7.6
				c2.6,3.2,7.3,3.6,10.5,1c0.4-0.3,0.7-0.7,1-1c1.4-1.8,2.1-4.4,2.1-7.6c0-3.2-0.7-5.8-2.1-7.6C132.9,19.8,130.8,18.7,128.5,18.8z"
				/>
			<path id="Path_5" class="st0" d="M167.8,13.8h7.2l5.9,22.8h0.1l6.2-22.8h7.4l-9.4,30.8h-7.9l-6.1-22.2h-0.2l-6,22.2h-7.9
				l-9.4-30.8h7.7l6.2,22.8h0.1L167.8,13.8z"/>
		</g>
	</g>
	<circle id="Ellipse_1" class="st0" cx="35.2" cy="26.4" r="4.7"/>
</g>
</svg>
