<?xml version="1.0" encoding="utf-8"?>
<!-- Generator: Adobe Illustrator 24.2.3, SVG Export Plug-In . SVG Version: 6.00 Build 0)  -->
<svg version="1.1" id="Group_19" xmlns="http://www.w3.org/2000/svg" xmlns:xlink="http://www.w3.org/1999/xlink" x="0px" y="0px"
	 viewBox="0 0 40 40" style="enable-background:new 0 0 40 40;" xml:space="preserve">
<style type="text/css">
	.st0{fill:#FFFFFF;}
</style>
<circle id="Ellipse_23" class="st0" cx="20" cy="20" r="4.4"/>
<path id="Path_31" class="st0" d="M30.4,12.1C30,11,29,10,27.9,9.6c-0.8-0.3-1.6-0.5-2.5-0.5C24,9.1,23.6,9.1,20,9.1l0,0
	c-3.6,0-4,0-5.4,0.1c-0.8,0-1.7,0.2-2.5,0.5c-0.6,0.2-1.1,0.6-1.5,1c-0.4,0.4-0.8,1-1,1.5c-0.3,0.8-0.5,1.6-0.5,2.5
	C9,16,9,16.4,9,20s0,4,0.1,5.4c0,0.8,0.2,1.7,0.5,2.5c0.5,1.2,1.4,2.1,2.5,2.5c0.8,0.3,1.6,0.5,2.5,0.5c1.4,0.1,1.8,0.1,5.4,0.1
	s4,0,5.4-0.1c0.8,0,1.7-0.2,2.5-0.5c0.6-0.2,1.1-0.6,1.5-1c0.4-0.4,0.8-1,1-1.5c0.3-0.8,0.5-1.6,0.5-2.5c0.1-1.4,0.1-1.8,0.1-5.4
	s0-4-0.1-5.4C30.8,13.8,30.7,12.9,30.4,12.1z M20,26.8c-3.8,0-6.8-3.1-6.8-6.8c0-3.8,3.1-6.8,6.8-6.8c3.8,0,6.8,3.1,6.8,6.8
	C26.9,23.8,23.8,26.8,20,26.8C20,26.8,20,26.8,20,26.8L20,26.8z M27.1,14.5c-0.9,0-1.6-0.7-1.6-1.6s0.7-1.6,1.6-1.6
	c0.9,0,1.6,0.7,1.6,1.6C28.7,13.8,28,14.5,27.1,14.5L27.1,14.5L27.1,14.5z"/>
<path id="Path_32" class="st0" d="M20,0C9,0,0,9,0,20s9,20,20,20s20-9,20-20S31,0,20,0z M33.3,25.5c0,1.1-0.2,2.2-0.6,3.2
	c-0.3,0.9-0.9,1.7-1.5,2.4c-0.7,0.7-1.5,1.2-2.4,1.5c-1,0.4-2.1,0.6-3.2,0.6c-1.4,0.1-1.9,0.1-5.5,0.1s-4.1,0-5.5-0.1
	c-1.1,0-2.2-0.2-3.2-0.6c-1.8-0.7-3.2-2.1-3.9-3.9c-0.4-1-0.6-2.1-0.6-3.2c-0.1-1.4-0.1-1.9-0.1-5.5s0-4.1,0.1-5.5
	c0-1.1,0.2-2.2,0.6-3.2c0.7-1.8,2.1-3.2,3.9-3.9c1-0.4,2.1-0.6,3.2-0.6c1.4-0.1,1.9-0.1,5.5-0.1s4.1,0,5.5,0.1
	c1.1,0,2.2,0.2,3.2,0.6c0.9,0.3,1.7,0.9,2.3,1.5c0.7,0.7,1.2,1.5,1.5,2.4c0.4,1,0.6,2.1,0.6,3.2c0.1,1.4,0.1,1.9,0.1,5.5
	S33.3,24.1,33.3,25.5z"/>
</svg>
