<?xml version="1.0" encoding="utf-8"?>
<!-- Generator: Adobe Illustrator 24.2.3, SVG Export Plug-In . SVG Version: 6.00 Build 0)  -->
<svg version="1.1" id="Layer_1" xmlns="http://www.w3.org/2000/svg" xmlns:xlink="http://www.w3.org/1999/xlink" x="0px" y="0px"
	 viewBox="0 0 40.1 40.1" style="enable-background:new 0 0 40.1 40.1;" xml:space="preserve">
<style type="text/css">
	.st0{fill-rule:evenodd;clip-rule:evenodd;fill:#FFFFFF;}
</style>
<path id="Path_26" class="st0" d="M20,0C9,0,0,9,0,20s9,20,20,20c11.1,0,20-9,20-20C40.1,9,31.1,0,20,0C20,0,20,0,20,0z M25.9,11.2
	h-0.3c-0.8,0-1.7,0-2.5,0c-1.1,0-2,0.5-2,1.9c0,1,0,3.4,0,3.4s2.7,0,3.8,0h0.9c-0.2,1.7-0.4,3.2-0.6,4.8h-4.1v12.1h-5V21.3H12v-4.8
	h4.1v-0.4c0-1,0-1.9,0-2.9c0-0.6,0.1-1.2,0.2-1.9c0.2-1.4,1-2.7,2.2-3.6c1.1-0.7,2.3-1.1,3.6-1.1c0.9,0,1.7,0,2.5,0.1
	c0.5,0,0.9,0.1,1.4,0.1L25.9,11.2z"/>
</svg>
