<?xml version="1.0" encoding="utf-8"?>
<!-- Generator: Adobe Illustrator 24.2.3, SVG Export Plug-In . SVG Version: 6.00 Build 0)  -->
<svg version="1.1" id="Layer_1" xmlns="http://www.w3.org/2000/svg" xmlns:xlink="http://www.w3.org/1999/xlink" x="0px" y="0px"
	 viewBox="0 0 40.4 40.4" style="enable-background:new 0 0 40.4 40.4;" xml:space="preserve">
<style type="text/css">
	.st0{fill:#FFFFFF;}
</style>
<path id="Path_25" class="st0" d="M20.2,0C9,0,0,9,0,20.2s9,20.2,20.2,20.2s20.2-9,20.2-20.2l0,0C40.4,9,31.4,0,20.2,0z M30.9,14.7
	c0,0.2,0,0.5,0,0.7c0,8.7-7.1,15.7-15.7,15.7c-3,0-5.9-0.9-8.5-2.5c0.4,0,0.9,0.1,1.3,0.1c2.5,0,4.9-0.8,6.8-2.4
	c-2.4,0-4.4-1.6-5.2-3.8c0.8,0.2,1.7,0.1,2.5-0.1c-2.6-0.5-4.4-2.8-4.4-5.4V17c0.8,0.4,1.6,0.7,2.5,0.7c-1.5-1-2.5-2.8-2.5-4.6
	c0-1,0.3-1.9,0.8-2.8c2.8,3.4,6.9,5.5,11.4,5.8c-0.1-0.4-0.1-0.8-0.1-1.3c0-3,2.5-5.5,5.5-5.5c1.5,0,3,0.6,4,1.8
	c1.2-0.2,2.4-0.7,3.5-1.3c-0.4,1.3-1.3,2.4-2.4,3.1c1.1-0.1,2.2-0.4,3.2-0.9l0.1,0C32.9,13,32,14,30.9,14.7z"/>
</svg>
