<?xml version="1.0" encoding="utf-8"?>
<!-- Generator: Adobe Illustrator 24.2.3, SVG Export Plug-In . SVG Version: 6.00 Build 0)  -->
<svg version="1.1" id="Layer_1" xmlns="http://www.w3.org/2000/svg" xmlns:xlink="http://www.w3.org/1999/xlink" x="0px" y="0px"
	 viewBox="0 0 276 254" style="enable-background:new 0 0 276 254;" xml:space="preserve">
<style type="text/css">
	.st0{fill:#C76443;}
	.st1{fill:url(#Path_126_1_);}
	.st2{fill:url(#Path_127_1_);}
	.st3{enable-background:new    ;}
	.st4{fill:none;}
</style>
<g id="Group_294" transform="translate(-1489 -4457)">
	<g id="Group_290">
		<g id="Group_285" transform="translate(1510.457 4464)">
			<g id="Group_284" transform="translate(60.542 0)">
				<path id="Path_124" class="st0" d="M49.4,93.1l-2-0.9C12,77.6-7.2,39.2,2.4,2.1L2.9,0l2,0.9C40.3,15.5,59.5,53.9,49.9,91
					L49.4,93.1z M5.5,5.2c-3.7,16.4-1.7,33.6,5.8,48.7l0,0c7.5,15.1,20,27.1,35.4,34C54.5,54,37.2,19.4,5.5,5.2L5.5,5.2z"/>
				<path id="Path_125" class="st0" d="M63.5,93.1L63,91c-9.6-37,9.6-75.5,44.9-90.1l2-0.9l0.5,2.1c4.6,17.9,2.6,36.9-5.6,53.5l0,0
					c-8.3,16.5-22.2,29.6-39.3,36.6L63.5,93.1z M107.3,5.2C75.6,19.4,58.4,54,66.1,87.9C81.5,81,94,69,101.5,53.9l0,0
					C109,38.8,111.1,21.6,107.3,5.2L107.3,5.2z M103.2,54.8L103.2,54.8z"/>
				
					<linearGradient id="Path_126_1_" gradientUnits="userSpaceOnUse" x1="-18.3358" y1="191.6811" x2="-17.3358" y2="191.6811" gradientTransform="matrix(48.6234 0 0 -87.925 893.4189 16900.1016)">
					<stop  offset="0" style="stop-color:#CB625B;stop-opacity:0"/>
					<stop  offset="8.800000e-02" style="stop-color:#CA6259;stop-opacity:5.500000e-02"/>
					<stop  offset="0.243" style="stop-color:#CA6256;stop-opacity:0.2"/>
					<stop  offset="0.446" style="stop-color:#C96250;stop-opacity:0.439"/>
					<stop  offset="0.686" style="stop-color:#C76348;stop-opacity:0.765"/>
					<stop  offset="0.846" style="stop-color:#C76443"/>
				</linearGradient>
				<path id="Path_126" class="st1" d="M9.7,54.8c8.1,16.1,21.7,28.8,38.4,35.8c9.4-36.1-9.3-73.7-43.9-87.9
					C-0.2,20.1,1.7,38.6,9.7,54.8z"/>
				
					<linearGradient id="Path_127_1_" gradientUnits="userSpaceOnUse" x1="-18.3359" y1="191.6811" x2="-17.3359" y2="191.6811" gradientTransform="matrix(48.6228 0 0 -87.925 953.9832 16900.1016)">
					<stop  offset="0" style="stop-color:#CB625B;stop-opacity:0"/>
					<stop  offset="8.800000e-02" style="stop-color:#CA6259;stop-opacity:5.500000e-02"/>
					<stop  offset="0.243" style="stop-color:#CA6256;stop-opacity:0.2"/>
					<stop  offset="0.446" style="stop-color:#C96250;stop-opacity:0.439"/>
					<stop  offset="0.686" style="stop-color:#C76348;stop-opacity:0.765"/>
					<stop  offset="0.846" style="stop-color:#C76443"/>
				</linearGradient>
				<path id="Path_127" class="st2" d="M70.3,38.3C78.4,22.2,92,9.5,108.7,2.6c9.4,36.1-9.3,73.7-43.9,87.9
					C60.3,73,62.3,54.5,70.3,38.3z"/>
				<g id="Group_283" transform="translate(35.951 105.994)">
					<g id="Group_281" transform="translate(0.843)">
						<path id="Path_128" class="st0" d="M5.3,10.6C3.9,10.6,2.6,10,1.6,9C1.1,8.6,0.7,8,0.4,7.3C0.1,6.7,0,6,0,5.3
							c0-0.4,0-0.7,0.1-1c0.1-0.3,0.2-0.7,0.3-1c0.2-0.3,0.3-0.6,0.5-0.9c0.2-0.3,0.4-0.6,0.7-0.8c0.2-0.3,0.5-0.5,0.8-0.7
							C2.7,0.7,3,0.5,3.3,0.4c0.3-0.1,0.6-0.2,1-0.3C5,0,5.7,0,6.4,0.1c0.3,0.1,0.7,0.2,1,0.3C7.6,0.6,8,0.7,8.3,0.9
							C8.5,1.1,8.8,1.3,9,1.6c0.3,0.2,0.5,0.5,0.7,0.8c0.2,0.3,0.3,0.6,0.5,0.9c0.1,0.3,0.2,0.7,0.3,1c0.1,0.3,0.1,0.7,0.1,1
							c0,0.7-0.1,1.4-0.4,2c-0.5,1.3-1.6,2.3-2.9,2.9C6.7,10.5,6,10.6,5.3,10.6z"/>
						<path id="Path_129" class="st0" d="M29.5,10.6c-0.7,0-1.4-0.1-2-0.4c-0.6-0.3-1.2-0.7-1.7-1.2c-0.5-0.5-0.9-1.1-1.1-1.7
							c-0.3-0.6-0.4-1.3-0.4-2c0-0.4,0-0.7,0.1-1c0-0.3,0.1-0.7,0.3-1c0.1-0.3,0.3-0.6,0.5-0.9c0.2-0.3,0.4-0.5,0.6-0.8
							c0.2-0.3,0.5-0.5,0.8-0.7c0.3-0.2,0.6-0.3,0.9-0.5c0.3-0.1,0.7-0.2,1-0.3c0.7-0.1,1.4-0.1,2.1,0c0.3,0.1,0.7,0.2,1,0.3
							c0.3,0.2,0.6,0.3,0.9,0.5c0.3,0.2,0.6,0.4,0.8,0.7c0.2,0.2,0.5,0.5,0.6,0.8c0.2,0.3,0.4,0.6,0.5,0.9c0.2,0.3,0.3,0.7,0.3,1
							c0.1,0.3,0.1,0.7,0.1,1c0,0.7-0.1,1.4-0.4,2C34.2,8,33.8,8.5,33.3,9C32.3,10,31,10.6,29.5,10.6z"/>
					</g>
					<g id="Group_282" transform="translate(0 16.574)">
						<path id="Path_130" class="st0" d="M10.3,25C4.6,25,0,20.3,0,14.6c0-1,0.8-1.9,1.9-1.9s1.9,0.8,1.9,1.9c0,0,0,0,0,0
							c0.1,3.6,3.2,6.5,6.8,6.4c3.5-0.1,6.3-2.9,6.4-6.4c0-1,0.8-1.9,1.9-1.9s1.9,0.8,1.9,1.9C20.7,20.3,16,25,10.3,25z"/>
						<path id="Path_131" class="st0" d="M27.3,25c-5.7,0-10.3-4.6-10.3-10.3c0-1,0.8-1.9,1.9-1.9s1.9,0.8,1.9,1.9
							c0.1,3.6,3.2,6.5,6.8,6.4c3.5-0.1,6.3-2.9,6.4-6.4c0-1,0.8-1.9,1.9-1.9s1.9,0.8,1.9,1.9C37.6,20.3,33,25,27.3,25z"/>
						<path id="Path_132" class="st0" d="M18.8,17.6c-1,0-1.9-0.8-1.9-1.9l0,0V3.5c0-1,0.8-1.9,1.9-1.9s1.9,0.8,1.9,1.9l0,0v12.3
							C20.7,16.8,19.8,17.6,18.8,17.6C18.8,17.6,18.8,17.6,18.8,17.6z"/>
						<path id="Path_133" class="st0" d="M19.4,9.7L9,0h20.1L19.4,9.7z M18.4,3.7l0.9,0.8l0.8-0.8H18.4z"/>
					</g>
				</g>
			</g>
			<g class="st3">
				<path class="st0" d="M4.1,230.3l-4.4-17.1h3.6l2.9,13.5l2.8-13.5h3.5l-4.4,17.1H4.1z"/>
				<path class="st0" d="M14.3,230.3v-17.1h9.4v3h-6v3.8h5.6v3h-5.6v4.2h6.4l-0.4,3H14.3z"/>
				<path class="st0" d="M34.8,223.7h-2.4v-2.8H38v7.9c-1.6,1.2-3.5,1.9-5.6,1.9c-2.2,0-3.9-0.8-5-2.3c-1.1-1.5-1.7-3.7-1.7-6.7
					c0-3,0.6-5.2,1.7-6.7c1.1-1.5,2.8-2.3,4.9-2.3c1.6,0,2.9,0.4,3.8,1.3c0.9,0.9,1.5,2.2,1.8,4l-3.4,0.4c-0.2-0.9-0.5-1.6-0.8-2
					c-0.4-0.4-0.9-0.6-1.6-0.6c-1,0-1.8,0.5-2.2,1.4c-0.5,0.9-0.7,2.5-0.7,4.5c0,2.1,0.3,3.6,0.8,4.6c0.5,1,1.4,1.4,2.5,1.4
					c0.8,0,1.6-0.2,2.3-0.6V223.7z"/>
				<path class="st0" d="M49.5,230.3l-0.9-3.9h-4.8l-0.9,3.9h-3.3l4.8-17.1h4l4.6,17.1H49.5z M46.2,216.2l-1.8,7.5H48L46.2,216.2z"
					/>
				<path class="st0" d="M62.9,230.3l-5.2-11.2v11.2h-3.1v-17.1h3.2l5.2,11.2v-11.2h3.1v17.1H62.9z"/>
				<path class="st0" d="M82.2,230.3l-0.6-0.9c-1,0.8-2.3,1.3-3.8,1.3c-1.7,0-3-0.4-4-1.3c-1-0.9-1.5-2.1-1.5-3.5
					c0-1,0.3-1.9,0.8-2.7c0.5-0.8,1.3-1.5,2.4-2.2c-0.6-0.9-1-1.6-1.2-2.2c-0.2-0.6-0.3-1.2-0.3-1.8c0-0.8,0.2-1.4,0.5-2
					c0.4-0.6,0.9-1.1,1.5-1.4s1.4-0.5,2.3-0.5c1.2,0,2.2,0.3,2.9,1c0.8,0.7,1.1,1.6,1.1,2.7c0,0.9-0.3,1.7-0.8,2.5s-1.4,1.5-2.5,2.3
					l2.6,3.6c0.2-0.9,0.3-2,0.3-3.2h2.8c0,2.2-0.4,4.1-1.3,5.6l2.1,2.8H82.2z M76.8,223c-0.5,0.4-0.9,0.8-1.1,1.2s-0.3,0.9-0.3,1.4
					c0,0.8,0.2,1.4,0.7,1.9c0.5,0.5,1.1,0.7,1.9,0.7c0.8,0,1.5-0.3,2-0.8L76.8,223z M77.7,219.7c0.6-0.4,1.1-0.9,1.3-1.3
					c0.3-0.4,0.4-0.9,0.4-1.5c0-0.5-0.1-0.8-0.3-1.1c-0.2-0.3-0.6-0.4-1-0.4c-0.4,0-0.8,0.1-1,0.4s-0.4,0.7-0.4,1.2
					c0,0.4,0.1,0.8,0.2,1.2C77.1,218.6,77.4,219.1,77.7,219.7z"/>
				<path class="st0" d="M102.5,224.1c-0.1,2.1-0.7,3.8-1.8,4.9c-1,1.1-2.4,1.7-4.2,1.7c-2.1,0-3.6-0.8-4.7-2.3s-1.6-3.7-1.6-6.7
					c0-2.9,0.5-5.2,1.6-6.7c1.1-1.6,2.7-2.3,4.8-2.3c3.2,0,5.2,2.1,5.7,6.2l-3.3,0.4c-0.2-1.3-0.5-2.2-0.9-2.7
					c-0.4-0.6-0.9-0.8-1.6-0.8c-1,0-1.7,0.5-2.1,1.5s-0.7,2.5-0.7,4.5c0,2,0.2,3.6,0.7,4.5c0.5,1,1.2,1.5,2.2,1.5
					c0.8,0,1.3-0.3,1.8-0.9c0.4-0.6,0.7-1.5,0.8-2.7H102.5z"/>
				<path class="st0" d="M112.5,230.3l-2.5-6.5c-0.1,0-0.4,0-0.7,0h-1.3v6.5h-3.2v-17.1h4.9c1.8,0,3.3,0.4,4.3,1.3
					c1,0.9,1.5,2.2,1.5,3.8c0,1-0.2,1.9-0.6,2.6c-0.4,0.8-1,1.4-1.8,1.9l3.1,7.4H112.5z M109.3,221.1c0.9,0,1.6-0.2,2.1-0.6
					c0.4-0.4,0.7-1.1,0.7-2c0-0.8-0.2-1.5-0.7-1.9c-0.4-0.4-1.1-0.6-2.1-0.6h-1.4v5.1H109.3z"/>
				<path class="st0" d="M125.9,213.2h3.4v11c0,2.1-0.5,3.8-1.5,4.9c-1,1.1-2.4,1.7-4.3,1.7c-1.9,0-3.3-0.6-4.3-1.7
					s-1.5-2.8-1.5-4.9v-11h3.4v11.2c0,1.1,0.2,2,0.6,2.5c0.4,0.5,1,0.8,1.8,0.8c0.8,0,1.4-0.3,1.8-0.8c0.4-0.5,0.6-1.4,0.6-2.5
					V213.2z"/>
				<path class="st0" d="M132.2,230.3v-17.1h9.4v3h-6v3.8h5.6v3h-5.6v4.2h6.4l-0.4,3H132.2z"/>
				<path class="st0" d="M144.2,230.3v-17.1h3.4v14.1h6l-0.4,3H144.2z"/>
				<path class="st0" d="M157,230.3v-14.1h-3.9v-3h11.2v3h-3.9v14.1H157z"/>
				<path class="st0" d="M169.8,230.3v-6.8l-4.5-10.3h3.6l2.6,7.2l2.6-7.2h3.5l-4.5,10.3v6.8H169.8z"/>
				<path class="st0" d="M177.4,224.7v-3.2h6.2v3.2H177.4z"/>
				<path class="st0" d="M185.9,230.3v-17.1h9.1v3h-5.7v4.1h5.3v3h-5.3v7H185.9z"/>
				<path class="st0" d="M205,230.3l-2.5-6.5c-0.1,0-0.4,0-0.7,0h-1.3v6.5h-3.2v-17.1h4.9c1.8,0,3.3,0.4,4.3,1.3
					c1,0.9,1.5,2.2,1.5,3.8c0,1-0.2,1.9-0.6,2.6c-0.4,0.8-1,1.4-1.8,1.9l3.1,7.4H205z M201.8,221.1c0.9,0,1.6-0.2,2.1-0.6
					c0.4-0.4,0.7-1.1,0.7-2c0-0.8-0.2-1.5-0.7-1.9c-0.4-0.4-1.1-0.6-2.1-0.6h-1.4v5.1H201.8z"/>
				<path class="st0" d="M210.5,230.3v-17.1h9.4v3h-6v3.8h5.6v3h-5.6v4.2h6.4l-0.4,3H210.5z"/>
				<path class="st0" d="M222.5,230.3v-17.1h9.4v3h-6v3.8h5.6v3h-5.6v4.2h6.4l-0.4,3H222.5z"/>
			</g>
		</g>
	</g>
	<rect id="Rectangle_252" x="1489" y="4457" class="st4" width="276" height="254"/>
</g>
</svg>
