<?xml version="1.0" encoding="utf-8"?>
<!-- Generator: Adobe Illustrator 24.2.3, SVG Export Plug-In . SVG Version: 6.00 Build 0)  -->
<svg version="1.1" id="Layer_1" xmlns="http://www.w3.org/2000/svg" xmlns:xlink="http://www.w3.org/1999/xlink" x="0px" y="0px"
	 viewBox="0 0 276 254" style="enable-background:new 0 0 276 254;" xml:space="preserve">
<style type="text/css">
	.st0{fill:#C76443;}
	.st1{fill:url(#Ellipse_76_1_);}
	.st2{enable-background:new    ;}
	.st3{fill:none;}
</style>
<g id="Group_293" transform="translate(-1045 -4457)">
	<g id="Group_289">
		<g id="Group_280" transform="translate(1074.346 4467)">
			<g id="Group_279" transform="translate(46.654 0)">
				<path id="Path_120" class="st0" d="M110,121.4c-1,0-1.9-0.8-1.9-1.9c0-0.4,0.1-0.8,0.4-1.1c18.8-25.9,13-62.1-12.9-80.9
					c-9.9-7.2-21.8-11-34-11H36.3c-1,0-1.9-0.8-1.9-1.9c0-1,0.8-1.9,1.9-1.9h25.3c34,0,61.7,27.6,61.6,61.7c0,13-4.1,25.7-11.7,36.2
					C111.2,121.1,110.6,121.4,110,121.4z"/>
				<path id="Path_121" class="st0" d="M84,146H61.6C27.6,146,0,118.4,0,84.4c0-15.1,5.5-29.6,15.5-40.9c0.7-0.8,1.9-0.8,2.6-0.2
					c0.8,0.7,0.8,1.9,0.2,2.6l0,0c-21.2,23.9-19,60.5,4.9,81.8c10.6,9.4,24.3,14.6,38.4,14.6H84c1,0,1.9,0.8,1.9,1.9S85,146,84,146
					C84,146,84,146,84,146L84,146z"/>
				<path id="Path_122" class="st0" d="M61.2,168.8c-1,0-1.9-0.8-1.9-1.9c0-0.5,0.2-1,0.5-1.3l21.4-21.4l-21.4-21.4
					c-0.7-0.7-0.7-1.9,0-2.6s1.9-0.7,2.6,0l24.1,24.1l-24.1,24.1C62.2,168.6,61.7,168.8,61.2,168.8z"/>
				<path id="Path_123" class="st0" d="M59,49.2c-0.5,0-1-0.2-1.3-0.5L33.7,24.6L57.7,0.5c0.7-0.7,1.9-0.7,2.6,0
					c0.7,0.7,0.7,1.9,0,2.6l0,0L38.9,24.6L60.4,46c0.7,0.7,0.7,1.9,0,2.6C60,49,59.5,49.2,59,49.2L59,49.2z"/>
				
					<linearGradient id="Ellipse_76_1_" gradientUnits="userSpaceOnUse" x1="36.6617" y1="188.5183" x2="37.6617" y2="188.5183" gradientTransform="matrix(119.63 0 0 -119.63 1382.8975 22636.8008)">
					<stop  offset="0" style="stop-color:#CB625B;stop-opacity:0"/>
					<stop  offset="8.800000e-02" style="stop-color:#CA6259;stop-opacity:5.500000e-02"/>
					<stop  offset="0.243" style="stop-color:#CA6256;stop-opacity:0.2"/>
					<stop  offset="0.446" style="stop-color:#C96250;stop-opacity:0.439"/>
					<stop  offset="0.686" style="stop-color:#C76348;stop-opacity:0.765"/>
					<stop  offset="0.846" style="stop-color:#C76443"/>
				</linearGradient>
				<ellipse id="Ellipse_76" class="st1" cx="61.8" cy="84.4" rx="59.8" ry="59.8"/>
			</g>
			<g class="st2">
				<path class="st0" d="M1.3,227.6v-17.1H6c1.8,0,3.2,0.5,4.3,1.4s1.5,2.3,1.5,4c0,1.7-0.5,3.1-1.5,4.1c-1,1-2.4,1.5-4.2,1.5H4.5v6
					H1.3z M5.8,218.7c1.8,0,2.6-0.9,2.6-2.7c0-1.8-0.9-2.7-2.6-2.7H4.5v5.4H5.8z"/>
				<path class="st0" d="M19.7,228.1c-2.1,0-3.7-0.8-4.8-2.3c-1.1-1.5-1.7-3.7-1.7-6.7c0-2.9,0.6-5.2,1.7-6.7s2.8-2.3,4.9-2.3
					c2.1,0,3.7,0.8,4.8,2.3c1.1,1.5,1.7,3.7,1.7,6.7c0,2.9-0.6,5.2-1.7,6.7S21.9,228.1,19.7,228.1z M19.8,225c1.1,0,1.8-0.5,2.3-1.4
					c0.5-1,0.7-2.5,0.7-4.6s-0.2-3.6-0.7-4.5c-0.5-0.9-1.2-1.4-2.3-1.4c-1.1,0-1.8,0.5-2.3,1.4c-0.5,1-0.7,2.5-0.7,4.6
					c0,2.1,0.2,3.6,0.7,4.5C18,224.6,18.7,225,19.8,225z"/>
				<path class="st0" d="M38.8,227.6l-2.3-12l-2.4,12h-3.5l-3.4-17.1h3.5l1.9,12.4l2.3-12.3h3.1l2.3,12.3l1.9-12.4h3.4l-3.4,17.1
					H38.8z"/>
				<path class="st0" d="M47.6,227.6v-17.1H57v3h-6v3.8h5.6v3h-5.6v4.2h6.4l-0.4,3H47.6z"/>
				<path class="st0" d="M67.4,227.6l-2.5-6.5c-0.1,0-0.4,0-0.7,0h-1.3v6.5h-3.2v-17.1h4.9c1.8,0,3.3,0.4,4.3,1.3
					c1,0.9,1.5,2.2,1.5,3.8c0,1-0.2,1.9-0.6,2.6c-0.4,0.8-1,1.4-1.8,1.9l3.1,7.4H67.4z M64.2,218.4c0.9,0,1.6-0.2,2.1-0.6
					c0.4-0.4,0.7-1.1,0.7-2c0-0.8-0.2-1.5-0.7-1.9c-0.4-0.4-1.1-0.6-2.1-0.6h-1.4v5.1H64.2z"/>
				<path class="st0" d="M72.9,227.6v-17.1h9.4v3h-6v3.8H82v3h-5.6v4.2h6.4l-0.4,3H72.9z"/>
				<path class="st0" d="M85,227.6v-17.1h4.9c2.3,0,4,0.7,5.2,2.2s1.8,3.5,1.8,6.3c0,2.7-0.6,4.9-1.9,6.4c-1.3,1.5-3,2.3-5.3,2.3H85
					z M89.8,224.6c2.4,0,3.6-1.9,3.6-5.6c0-3.6-1.1-5.5-3.4-5.5h-1.6v11.1H89.8z"/>
				<path class="st0" d="M103.5,227.6v-17.1h5c1.6,0,2.9,0.4,3.8,1.2c0.9,0.8,1.4,1.8,1.4,3.2c0,0.8-0.2,1.6-0.6,2.2s-1,1.1-1.8,1.5
					c0.9,0.3,1.7,0.9,2.2,1.6c0.5,0.7,0.8,1.6,0.8,2.5c0,1.6-0.5,2.8-1.5,3.6c-1,0.9-2.4,1.3-4.1,1.3H103.5z M108.3,217.4
					c0.7,0,1.2-0.2,1.6-0.6s0.6-0.9,0.6-1.6c0-1.4-0.8-2-2.3-2h-1.6v4.2H108.3z M108.4,224.9c1.7,0,2.6-0.8,2.6-2.4
					c0-0.8-0.2-1.4-0.6-1.8c-0.4-0.4-1.1-0.6-1.9-0.6h-1.8v4.9H108.4z"/>
				<path class="st0" d="M119.3,227.6v-6.8l-4.5-10.3h3.6l2.6,7.2l2.6-7.2h3.5l-4.5,10.3v6.8H119.3z"/>
				<path class="st0" d="M136.1,220.1c-1.4-0.4-2.4-1-3-1.8c-0.6-0.8-1-1.9-1-3.2c0-1.5,0.5-2.7,1.5-3.6s2.3-1.4,3.9-1.4
					c1.6,0,2.8,0.4,3.6,1.2c0.9,0.8,1.4,2,1.6,3.6l-3.2,0.4c-0.2-0.9-0.4-1.5-0.7-1.9s-0.8-0.6-1.4-0.6s-1.1,0.2-1.4,0.5
					c-0.3,0.4-0.5,0.9-0.5,1.6c0,0.6,0.1,1.1,0.4,1.4c0.3,0.3,0.7,0.6,1.3,0.8l1.8,0.6c1,0.3,1.8,0.7,2.4,1.1c0.6,0.5,1,1,1.3,1.7
					c0.3,0.7,0.4,1.4,0.4,2.4c0,1.6-0.5,2.9-1.5,3.8c-1,0.9-2.3,1.4-4,1.4c-3.6,0-5.5-1.9-5.7-5.6h3.4c0.1,1,0.3,1.7,0.7,2.1
					c0.4,0.4,0.9,0.7,1.7,0.7c0.7,0,1.2-0.2,1.5-0.6c0.4-0.4,0.5-1,0.5-1.7c0-0.7-0.1-1.2-0.4-1.6c-0.3-0.4-0.8-0.7-1.4-0.9
					L136.1,220.1z"/>
				<path class="st0" d="M156.9,221.4c-0.1,2.1-0.7,3.8-1.8,4.9c-1,1.1-2.4,1.7-4.2,1.7c-2.1,0-3.6-0.8-4.7-2.3s-1.6-3.7-1.6-6.7
					c0-2.9,0.5-5.2,1.6-6.7c1.1-1.6,2.7-2.3,4.8-2.3c3.2,0,5.2,2.1,5.7,6.2l-3.3,0.4c-0.2-1.3-0.5-2.2-0.9-2.7
					c-0.4-0.6-0.9-0.8-1.6-0.8c-1,0-1.7,0.5-2.1,1.5s-0.7,2.5-0.7,4.5c0,2,0.2,3.6,0.7,4.5c0.5,1,1.2,1.5,2.2,1.5
					c0.8,0,1.3-0.3,1.8-0.9c0.4-0.6,0.7-1.5,0.8-2.7H156.9z"/>
				<path class="st0" d="M159,227.6v-17.1h3.4v17.1H159z"/>
				<path class="st0" d="M165.6,227.6v-17.1h9.4v3h-6v3.8h5.6v3H169v4.2h6.4l-0.4,3H165.6z"/>
				<path class="st0" d="M185.9,227.6l-5.2-11.2v11.2h-3.1v-17.1h3.2l5.2,11.2v-11.2h3.1v17.1H185.9z"/>
				<path class="st0" d="M203.9,221.4c-0.1,2.1-0.7,3.8-1.8,4.9c-1,1.1-2.4,1.7-4.2,1.7c-2.1,0-3.6-0.8-4.7-2.3s-1.6-3.7-1.6-6.7
					c0-2.9,0.5-5.2,1.6-6.7c1.1-1.6,2.7-2.3,4.8-2.3c3.2,0,5.2,2.1,5.7,6.2l-3.3,0.4c-0.2-1.3-0.5-2.2-0.9-2.7
					c-0.4-0.6-0.9-0.8-1.6-0.8c-1,0-1.7,0.5-2.1,1.5s-0.7,2.5-0.7,4.5c0,2,0.2,3.6,0.7,4.5c0.5,1,1.2,1.5,2.2,1.5
					c0.8,0,1.3-0.3,1.8-0.9c0.4-0.6,0.7-1.5,0.8-2.7H203.9z"/>
				<path class="st0" d="M206,227.6v-17.1h9.4v3h-6v3.8h5.6v3h-5.6v4.2h6.4l-0.4,3H206z"/>
			</g>
		</g>
	</g>
	<rect id="Rectangle_251" x="1045" y="4457" class="st3" width="276" height="254"/>
</g>
</svg>
