<?xml version="1.0" encoding="utf-8"?>
<!-- Generator: Adobe Illustrator 24.2.3, SVG Export Plug-In . SVG Version: 6.00 Build 0)  -->
<svg version="1.1" id="Layer_1" xmlns="http://www.w3.org/2000/svg" xmlns:xlink="http://www.w3.org/1999/xlink" x="0px" y="0px"
	 viewBox="0 0 276 254" style="enable-background:new 0 0 276 254;" xml:space="preserve">
<style type="text/css">
	.st0{fill:url(#Path_116_1_);}
	.st1{fill:#C76443;}
	.st2{fill:url(#Path_118_1_);}
	.st3{enable-background:new    ;}
	.st4{fill:none;}
</style>
<g id="Group_292" transform="translate(-601 -4457)">
	<g id="Group_288">
		<g id="Group_278" transform="translate(636.111 4472)">
			<g id="Group_277" transform="translate(23.889 0)">
				
					<linearGradient id="Path_116_1_" gradientUnits="userSpaceOnUse" x1="5.2753" y1="183.6801" x2="6.2753" y2="183.6801" gradientTransform="matrix(89.6982 0 0 -88.0608 -407.5965 16219.4502)">
					<stop  offset="0" style="stop-color:#CB625B;stop-opacity:0"/>
					<stop  offset="8.800000e-02" style="stop-color:#CA6259;stop-opacity:5.500000e-02"/>
					<stop  offset="0.243" style="stop-color:#CA6256;stop-opacity:0.2"/>
					<stop  offset="0.446" style="stop-color:#C96250;stop-opacity:0.439"/>
					<stop  offset="0.686" style="stop-color:#C76348;stop-opacity:0.765"/>
					<stop  offset="0.846" style="stop-color:#C76443"/>
				</linearGradient>
				<path id="Path_116" class="st0" d="M65.6,82.1c0,0-3.4-55.6,74.9-60.2c0,0,14.3-2.5,13-21.5c0,0,19.8,91.3-75.3,88"/>
				<path id="Path_117" class="st1" d="M65.6,156.3c-1,0-1.9-0.8-1.9-1.9l0,0V82.1c0-0.4-2.4-54.3,70.3-61.6
					c10.4-1,18.2-9.6,17.7-19.4l0-0.5l3.7-0.5c0.4,1.7,8.6,41.3-13.5,67.8c-13.3,15.9-34.8,23.4-63.7,22.5l-1.7-0.1l-0.1-1.7
					c0-0.3-1.3-32.5,31.4-39.2c1-0.2,2,0.5,2.2,1.5c0.2,1-0.4,1.9-1.4,2.2c-25.7,5.3-28.2,27.3-28.4,33.7
					c26.8,0.5,46.6-6.5,58.9-21.2c14.1-16.9,15-40.1,14.1-53.6c-3.7,7-10.7,11.7-18.7,12.4C105.7,27.1,85,38,74.6,55.8
					c-4.7,7.9-7.1,16.9-7.1,26.1v72.5C67.5,155.4,66.6,156.3,65.6,156.3z"/>
				
					<linearGradient id="Path_118_1_" gradientUnits="userSpaceOnUse" x1="6.052" y1="183.5292" x2="5.144" y2="184.0082" gradientTransform="matrix(63.7178 0 0 -60.9411 -315.4219 11294.1514)">
					<stop  offset="0" style="stop-color:#CB625B;stop-opacity:0"/>
					<stop  offset="8.800000e-02" style="stop-color:#CA6259;stop-opacity:5.500000e-02"/>
					<stop  offset="0.243" style="stop-color:#CA6256;stop-opacity:0.2"/>
					<stop  offset="0.446" style="stop-color:#C96250;stop-opacity:0.439"/>
					<stop  offset="0.686" style="stop-color:#C76348;stop-opacity:0.765"/>
					<stop  offset="0.846" style="stop-color:#C76443"/>
				</linearGradient>
				<path id="Path_118" class="st2" d="M65.6,112.4c0,0,2.3-38-49.6-43.1C8,68.4,1.6,61.8,2,53.8c0-0.1,0-0.3,0-0.4
					C2,53.4-4.3,127.1,65.6,112.4"/>
				<path id="Path_119" class="st1" d="M48.4,116.2c-12.6,0-22.9-3.5-30.9-10.5C-2.5,87.9,0.1,54.6,0.2,53.2l3.7,0.3l0,0.4
					c-0.4,6.9,5,12.8,12.3,13.5c53.1,5.3,51.3,44.7,51.3,45.1l-0.1,1.4l-1.4,0.3C60.2,115.5,54.3,116.1,48.4,116.2z M4.1,65.1
					C5,76.1,8.4,92.6,20,102.9c10.2,9,24.9,11.7,43.7,8c-0.2-6.8-3.6-35.3-47.9-39.7C11.3,70.7,7.1,68.5,4.1,65.1z M65.6,112.4
					L65.6,112.4z"/>
			</g>
			<g class="st3">
				<path class="st1" d="M13.1,215.9c-0.1,2.1-0.7,3.8-1.8,4.9c-1,1.1-2.4,1.7-4.2,1.7c-2.1,0-3.6-0.8-4.7-2.3s-1.6-3.7-1.6-6.7
					c0-2.9,0.5-5.2,1.6-6.7c1.1-1.6,2.7-2.3,4.8-2.3c3.2,0,5.2,2.1,5.7,6.2l-3.3,0.4c-0.2-1.3-0.5-2.2-0.9-2.7
					c-0.4-0.6-0.9-0.8-1.6-0.8c-1,0-1.7,0.5-2.1,1.5s-0.7,2.5-0.7,4.5c0,2,0.2,3.6,0.7,4.5c0.5,1,1.2,1.5,2.2,1.5
					c0.8,0,1.3-0.3,1.8-0.9c0.4-0.6,0.7-1.5,0.8-2.7H13.1z"/>
				<path class="st1" d="M15.2,222.1V205h3.4v14.1h6l-0.4,3H15.2z"/>
				<path class="st1" d="M26.5,222.1V205h9.4v3h-6v3.8h5.6v3h-5.6v4.2h6.4l-0.4,3H26.5z"/>
				<path class="st1" d="M47.4,222.1l-0.9-3.9h-4.8l-0.9,3.9h-3.3l4.8-17.1h4l4.6,17.1H47.4z M44.2,208l-1.8,7.5h3.5L44.2,208z"/>
				<path class="st1" d="M60.9,222.1l-5.2-11.2v11.2h-3.1V205h3.2l5.2,11.2V205H64v17.1H60.9z"/>
				<path class="st1" d="M80.2,222.1l-0.6-0.9c-1,0.8-2.3,1.3-3.8,1.3c-1.7,0-3-0.4-4-1.3c-1-0.9-1.5-2.1-1.5-3.5
					c0-1,0.3-1.9,0.8-2.7c0.5-0.8,1.3-1.5,2.4-2.2c-0.6-0.9-1-1.6-1.2-2.2c-0.2-0.6-0.3-1.2-0.3-1.8c0-0.8,0.2-1.4,0.5-2
					c0.4-0.6,0.9-1.1,1.5-1.4s1.4-0.5,2.3-0.5c1.2,0,2.2,0.3,2.9,1c0.8,0.7,1.1,1.6,1.1,2.7c0,0.9-0.3,1.7-0.8,2.5
					c-0.5,0.8-1.4,1.5-2.5,2.3l2.6,3.6c0.2-0.9,0.3-2,0.3-3.2h2.8c0,2.2-0.4,4.1-1.3,5.6l2.1,2.8H80.2z M74.7,214.8
					c-0.5,0.4-0.9,0.8-1.1,1.2c-0.2,0.4-0.3,0.9-0.3,1.4c0,0.8,0.2,1.4,0.7,1.9c0.5,0.5,1.1,0.7,1.9,0.7c0.8,0,1.5-0.3,2-0.8
					L74.7,214.8z M75.7,211.5c0.6-0.4,1.1-0.9,1.3-1.3c0.3-0.4,0.4-0.9,0.4-1.5c0-0.5-0.1-0.8-0.3-1.1c-0.2-0.3-0.6-0.4-1-0.4
					c-0.4,0-0.8,0.1-1,0.4s-0.4,0.7-0.4,1.2c0,0.4,0.1,0.8,0.2,1.2C75,210.4,75.3,210.9,75.7,211.5z"/>
				<path class="st1" d="M100.5,215.9c-0.1,2.1-0.7,3.8-1.8,4.9c-1,1.1-2.4,1.7-4.2,1.7c-2.1,0-3.6-0.8-4.7-2.3s-1.6-3.7-1.6-6.7
					c0-2.9,0.5-5.2,1.6-6.7c1.1-1.6,2.7-2.3,4.8-2.3c3.2,0,5.2,2.1,5.7,6.2l-3.3,0.4c-0.2-1.3-0.5-2.2-0.9-2.7
					c-0.4-0.6-0.9-0.8-1.6-0.8c-1,0-1.7,0.5-2.1,1.5s-0.7,2.5-0.7,4.5c0,2,0.2,3.6,0.7,4.5c0.5,1,1.2,1.5,2.2,1.5
					c0.8,0,1.3-0.3,1.8-0.9c0.4-0.6,0.7-1.5,0.8-2.7H100.5z"/>
				<path class="st1" d="M108.4,222.6c-2.1,0-3.7-0.8-4.8-2.3c-1.1-1.5-1.7-3.7-1.7-6.7c0-2.9,0.6-5.2,1.7-6.7s2.8-2.3,4.9-2.3
					c2.1,0,3.7,0.8,4.8,2.3c1.1,1.5,1.7,3.7,1.7,6.7c0,2.9-0.6,5.2-1.7,6.7S110.6,222.6,108.4,222.6z M108.4,219.5
					c1.1,0,1.8-0.5,2.3-1.4c0.5-1,0.7-2.5,0.7-4.6s-0.2-3.6-0.7-4.5c-0.5-0.9-1.2-1.4-2.3-1.4c-1.1,0-1.8,0.5-2.3,1.4
					c-0.5,1-0.7,2.5-0.7,4.6c0,2.1,0.2,3.6,0.7,4.5C106.6,219.1,107.4,219.5,108.4,219.5z"/>
				<path class="st1" d="M125.8,222.1l-5.2-11.2v11.2h-3.1V205h3.2l5.2,11.2V205h3.1v17.1H125.8z"/>
				<path class="st1" d="M135.5,214.6c-1.4-0.4-2.4-1-3-1.8c-0.6-0.8-1-1.9-1-3.2c0-1.5,0.5-2.7,1.5-3.6s2.3-1.4,3.9-1.4
					c1.6,0,2.8,0.4,3.6,1.2c0.9,0.8,1.4,2,1.6,3.6l-3.2,0.4c-0.2-0.9-0.4-1.5-0.7-1.9s-0.8-0.6-1.4-0.6s-1.1,0.2-1.4,0.5
					c-0.3,0.4-0.5,0.9-0.5,1.6c0,0.6,0.1,1.1,0.4,1.4c0.3,0.3,0.7,0.6,1.3,0.8l1.8,0.6c1,0.3,1.8,0.7,2.4,1.1c0.6,0.5,1,1,1.3,1.7
					c0.3,0.7,0.4,1.4,0.4,2.4c0,1.6-0.5,2.9-1.5,3.8c-1,0.9-2.3,1.4-4,1.4c-3.6,0-5.5-1.9-5.7-5.6h3.4c0.1,1,0.3,1.7,0.7,2.1
					c0.4,0.4,0.9,0.7,1.7,0.7c0.7,0,1.2-0.2,1.5-0.6c0.4-0.4,0.5-1,0.5-1.7c0-0.7-0.1-1.2-0.4-1.6c-0.3-0.4-0.8-0.7-1.4-0.9
					L135.5,214.6z"/>
				<path class="st1" d="M156.3,215.9c-0.1,2.1-0.7,3.8-1.8,4.9c-1,1.1-2.4,1.7-4.2,1.7c-2.1,0-3.6-0.8-4.7-2.3s-1.6-3.7-1.6-6.7
					c0-2.9,0.5-5.2,1.6-6.7c1.1-1.6,2.7-2.3,4.8-2.3c3.2,0,5.2,2.1,5.7,6.2l-3.3,0.4c-0.2-1.3-0.5-2.2-0.9-2.7
					c-0.4-0.6-0.9-0.8-1.6-0.8c-1,0-1.7,0.5-2.1,1.5s-0.7,2.5-0.7,4.5c0,2,0.2,3.6,0.7,4.5c0.5,1,1.2,1.5,2.2,1.5
					c0.8,0,1.3-0.3,1.8-0.9c0.4-0.6,0.7-1.5,0.8-2.7H156.3z"/>
				<path class="st1" d="M158.4,222.1V205h3.4v17.1H158.4z"/>
				<path class="st1" d="M170.9,222.6c-2.1,0-3.7-0.8-4.8-2.3c-1.1-1.5-1.7-3.7-1.7-6.7c0-2.9,0.6-5.2,1.7-6.7s2.8-2.3,4.9-2.3
					c2.1,0,3.7,0.8,4.8,2.3c1.1,1.5,1.7,3.7,1.7,6.7c0,2.9-0.6,5.2-1.7,6.7S173,222.6,170.9,222.6z M170.9,219.5
					c1.1,0,1.8-0.5,2.3-1.4c0.5-1,0.7-2.5,0.7-4.6s-0.2-3.6-0.7-4.5c-0.5-0.9-1.2-1.4-2.3-1.4c-1.1,0-1.8,0.5-2.3,1.4
					c-0.5,1-0.7,2.5-0.7,4.6c0,2.1,0.2,3.6,0.7,4.5C169.1,219.1,169.9,219.5,170.9,219.5z"/>
				<path class="st1" d="M188,205h3.4v11c0,2.1-0.5,3.8-1.5,4.9c-1,1.1-2.4,1.7-4.3,1.7c-1.9,0-3.3-0.6-4.3-1.7s-1.5-2.8-1.5-4.9
					v-11h3.4v11.2c0,1.1,0.2,2,0.6,2.5c0.4,0.5,1,0.8,1.8,0.8c0.8,0,1.4-0.3,1.8-0.8c0.4-0.5,0.6-1.4,0.6-2.5V205z"/>
				<path class="st1" d="M197.5,214.6c-1.4-0.4-2.4-1-3-1.8c-0.6-0.8-1-1.9-1-3.2c0-1.5,0.5-2.7,1.5-3.6s2.3-1.4,3.9-1.4
					c1.6,0,2.8,0.4,3.6,1.2c0.9,0.8,1.4,2,1.6,3.6l-3.2,0.4c-0.2-0.9-0.4-1.5-0.7-1.9s-0.8-0.6-1.4-0.6s-1.1,0.2-1.4,0.5
					c-0.3,0.4-0.5,0.9-0.5,1.6c0,0.6,0.1,1.1,0.4,1.4c0.3,0.3,0.7,0.6,1.3,0.8l1.8,0.6c1,0.3,1.8,0.7,2.4,1.1c0.6,0.5,1,1,1.3,1.7
					c0.3,0.7,0.4,1.4,0.4,2.4c0,1.6-0.5,2.9-1.5,3.8c-1,0.9-2.3,1.4-4,1.4c-3.6,0-5.5-1.9-5.7-5.6h3.4c0.1,1,0.3,1.7,0.7,2.1
					c0.4,0.4,0.9,0.7,1.7,0.7c0.7,0,1.2-0.2,1.5-0.6c0.4-0.4,0.5-1,0.5-1.7c0-0.7-0.1-1.2-0.4-1.6c-0.3-0.4-0.8-0.7-1.4-0.9
					L197.5,214.6z"/>
			</g>
		</g>
	</g>
	<rect id="Rectangle_250" x="601" y="4457" class="st4" width="276" height="254"/>
</g>
</svg>
