<?xml version="1.0" encoding="utf-8"?>
<!-- Generator: Adobe Illustrator 24.2.3, SVG Export Plug-In . SVG Version: 6.00 Build 0)  -->
<svg version="1.1" id="Layer_1" xmlns="http://www.w3.org/2000/svg" xmlns:xlink="http://www.w3.org/1999/xlink" x="0px" y="0px"
	 viewBox="0 0 276 254" style="enable-background:new 0 0 276 254;" xml:space="preserve">
<style type="text/css">
	.st0{fill:url(#Path_113_1_);}
	.st1{fill:#C76443;}
	.st2{enable-background:new    ;}
	.st3{fill:none;}
</style>
<g id="Group_291" transform="translate(-156 -4457)">
	<g id="Group_276" transform="translate(160 4472)">
		<g id="Group_275" transform="translate(76 0)">
			<g id="Group_273" transform="translate(1.867 2.888)">
				
					<linearGradient id="Path_113_1_" gradientUnits="userSpaceOnUse" x1="-17.449" y1="180.568" x2="-16.449" y2="180.568" gradientTransform="matrix(111.687 0 0 -138.8045 1948.8247 25133.0547)">
					<stop  offset="0" style="stop-color:#CB625B;stop-opacity:0"/>
					<stop  offset="8.800000e-02" style="stop-color:#CA6259;stop-opacity:5.500000e-02"/>
					<stop  offset="0.243" style="stop-color:#CA6256;stop-opacity:0.2"/>
					<stop  offset="0.446" style="stop-color:#C96250;stop-opacity:0.439"/>
					<stop  offset="0.686" style="stop-color:#C76348;stop-opacity:0.765"/>
					<stop  offset="0.846" style="stop-color:#C76443"/>
				</linearGradient>
				<path id="Path_113" class="st0" d="M55.8,0L31.8,28.4L11.6,52.2C4.3,60.7,0.2,71.5,0,82.7c0,0.2,0,0.4,0,0.6
					c0.2,29.3,23.9,54,53.2,55.4c30.8,1.5,57-22.3,58.4-53.1c0-0.9,0.1-1.8,0.1-2.6v-0.2c-0.2-11.3-4.4-22.2-11.8-30.7L55.8,0z"/>
			</g>
			<g id="Group_274">
				<path id="Path_114" class="st1" d="M57.7,143.6c-0.9,0-1.8,0-2.8-0.1c-30.1-1.4-54.8-27.1-55-57.2v-0.6
					c0.2-11.7,4.4-22.9,12.1-31.7L57.7,0l45.5,53.7c7.7,8.9,12,20.2,12.3,31.9c0.1,31.9-25.6,57.8-57.5,58
					C57.9,143.6,57.8,143.6,57.7,143.6L57.7,143.6z M57.7,5.8L14.9,56.3c-7.1,8.2-11,18.5-11.2,29.3v0.6
					c0.2,28.2,23.3,52.2,51.4,53.5c29.8,1.4,55.1-21.6,56.5-51.4c0-0.9,0.1-1.7,0.1-2.6c-0.2-11-4.2-21.5-11.4-29.8L57.7,5.8z"/>
			</g>
			<path id="Path_115" class="st1" d="M44.8,124.4c-0.1,0-0.1,0-0.2,0c-21.7-1.8-29.4-26.6-29.7-27.7c-0.3-1,0.3-2,1.3-2.3
				c1-0.3,2,0.3,2.3,1.2c0.1,0.2,7.2,23.4,26.4,25c1,0.1,1.8,1,1.7,2C46.5,123.7,45.7,124.4,44.8,124.4L44.8,124.4z"/>
		</g>
		<g class="st2">
			<path class="st1" d="M4.2,222.2v-14.1H0.3v-3h11.2v3H7.5v14.1H4.2z"/>
			<path class="st1" d="M21.1,222.2l-2.5-6.5c-0.1,0-0.4,0-0.7,0h-1.3v6.5h-3.2v-17.1h4.9c1.8,0,3.3,0.4,4.3,1.3
				c1,0.9,1.5,2.2,1.5,3.8c0,1-0.2,1.9-0.6,2.6c-0.4,0.8-1,1.4-1.8,1.9l3.1,7.4H21.1z M17.9,213c0.9,0,1.6-0.2,2.1-0.6
				c0.4-0.4,0.7-1.1,0.7-2c0-0.8-0.2-1.5-0.7-1.9c-0.4-0.4-1.1-0.6-2.1-0.6h-1.4v5.1H17.9z"/>
			<path class="st1" d="M35.6,222.2l-0.9-3.9h-4.8l-0.9,3.9h-3.3l4.8-17.1h4l4.6,17.1H35.6z M32.4,208.1l-1.8,7.5h3.5L32.4,208.1z"
				/>
			<path class="st1" d="M49.1,222.2L43.9,211v11.2h-3.1v-17.1H44l5.2,11.2v-11.2h3.1v17.1H49.1z"/>
			<path class="st1" d="M58.7,214.6c-1.4-0.4-2.4-1-3-1.8c-0.6-0.8-1-1.9-1-3.2c0-1.5,0.5-2.7,1.5-3.6c1-0.9,2.3-1.4,3.9-1.4
				c1.6,0,2.8,0.4,3.6,1.2c0.9,0.8,1.4,2,1.6,3.6l-3.2,0.4c-0.2-0.9-0.4-1.5-0.7-1.9c-0.3-0.4-0.8-0.6-1.4-0.6s-1.1,0.2-1.4,0.5
				c-0.3,0.4-0.5,0.9-0.5,1.6c0,0.6,0.1,1.1,0.4,1.4s0.7,0.6,1.3,0.8l1.8,0.6c1,0.3,1.8,0.7,2.4,1.1s1,1,1.3,1.7
				c0.3,0.7,0.4,1.4,0.4,2.4c0,1.6-0.5,2.9-1.5,3.8c-1,0.9-2.3,1.4-4,1.4c-3.6,0-5.5-1.9-5.7-5.6h3.4c0.1,1,0.3,1.7,0.7,2.1
				c0.4,0.4,0.9,0.7,1.7,0.7c0.7,0,1.2-0.2,1.5-0.6c0.4-0.4,0.5-1,0.5-1.7c0-0.7-0.1-1.2-0.4-1.6s-0.8-0.7-1.4-0.9L58.7,214.6z"/>
			<path class="st1" d="M67.9,222.2v-17.1h4.7c1.8,0,3.2,0.5,4.3,1.4c1,1,1.5,2.3,1.5,4c0,1.7-0.5,3.1-1.5,4.1s-2.4,1.5-4.2,1.5
				h-1.5v6H67.9z M72.5,213.3c1.8,0,2.6-0.9,2.6-2.7c0-1.8-0.9-2.7-2.6-2.7h-1.3v5.4H72.5z"/>
			<path class="st1" d="M88,222.2l-0.9-3.9h-4.8l-0.9,3.9h-3.3l4.8-17.1h4l4.6,17.1H88z M84.8,208.1l-1.8,7.5h3.5L84.8,208.1z"/>
			<path class="st1" d="M101,222.2l-2.5-6.5c-0.1,0-0.4,0-0.7,0h-1.3v6.5h-3.2v-17.1h4.9c1.8,0,3.3,0.4,4.3,1.3
				c1,0.9,1.5,2.2,1.5,3.8c0,1-0.2,1.9-0.6,2.6c-0.4,0.8-1,1.4-1.8,1.9l3.1,7.4H101z M97.8,213c0.9,0,1.6-0.2,2.1-0.6
				c0.4-0.4,0.7-1.1,0.7-2c0-0.8-0.2-1.5-0.7-1.9c-0.4-0.4-1.1-0.6-2.1-0.6h-1.4v5.1H97.8z"/>
			<path class="st1" d="M106.6,222.2v-17.1h9.4v3h-6v3.8h5.6v3H110v4.2h6.4l-0.4,3H106.6z"/>
			<path class="st1" d="M126.9,222.2l-5.2-11.2v11.2h-3.1v-17.1h3.2l5.2,11.2v-11.2h3.1v17.1H126.9z"/>
			<path class="st1" d="M135.8,222.2v-14.1h-3.9v-3h11.2v3h-3.9v14.1H135.8z"/>
			<path class="st1" d="M157.8,222.2l-0.6-0.9c-1,0.8-2.3,1.3-3.8,1.3c-1.7,0-3-0.4-4-1.3c-1-0.9-1.5-2.1-1.5-3.5
				c0-1,0.3-1.9,0.8-2.7c0.5-0.8,1.3-1.5,2.4-2.2c-0.6-0.9-1-1.6-1.2-2.2c-0.2-0.6-0.3-1.2-0.3-1.8c0-0.8,0.2-1.4,0.5-2
				c0.4-0.6,0.9-1.1,1.5-1.4s1.4-0.5,2.3-0.5c1.2,0,2.2,0.3,2.9,1c0.8,0.7,1.1,1.6,1.1,2.7c0,0.9-0.3,1.7-0.8,2.5s-1.4,1.5-2.5,2.3
				l2.6,3.6c0.2-0.9,0.3-2,0.3-3.2h2.8c0,2.2-0.4,4.1-1.3,5.6l2.1,2.8H157.8z M152.4,214.9c-0.5,0.4-0.9,0.8-1.1,1.2
				s-0.3,0.9-0.3,1.4c0,0.8,0.2,1.4,0.7,1.9c0.5,0.5,1.1,0.7,1.9,0.7c0.8,0,1.5-0.3,2-0.8L152.4,214.9z M153.3,211.6
				c0.6-0.4,1.1-0.9,1.3-1.3c0.3-0.4,0.4-0.9,0.4-1.5c0-0.5-0.1-0.8-0.3-1.1c-0.2-0.3-0.6-0.4-1-0.4c-0.4,0-0.8,0.1-1,0.4
				s-0.4,0.7-0.4,1.2c0,0.4,0.1,0.8,0.2,1.2C152.7,210.5,153,211,153.3,211.6z"/>
			<path class="st1" d="M169.1,222.2v-14.1h-3.9v-3h11.2v3h-3.9v14.1H169.1z"/>
			<path class="st1" d="M186,222.2l-2.5-6.5c-0.1,0-0.4,0-0.7,0h-1.3v6.5h-3.2v-17.1h4.9c1.8,0,3.3,0.4,4.3,1.3
				c1,0.9,1.5,2.2,1.5,3.8c0,1-0.2,1.9-0.6,2.6c-0.4,0.8-1,1.4-1.8,1.9l3.1,7.4H186z M182.9,213c0.9,0,1.6-0.2,2.1-0.6
				c0.4-0.4,0.7-1.1,0.7-2c0-0.8-0.2-1.5-0.7-1.9c-0.4-0.4-1.1-0.6-2.1-0.6h-1.4v5.1H182.9z"/>
			<path class="st1" d="M199.5,205.1h3.4v11c0,2.1-0.5,3.8-1.5,4.9c-1,1.1-2.4,1.7-4.3,1.7c-1.9,0-3.3-0.6-4.3-1.7s-1.5-2.8-1.5-4.9
				v-11h3.4v11.2c0,1.1,0.2,2,0.6,2.5c0.4,0.5,1,0.8,1.8,0.8c0.8,0,1.4-0.3,1.8-0.8c0.4-0.5,0.6-1.4,0.6-2.5V205.1z"/>
			<path class="st1" d="M208.3,222.2v-14.1h-3.9v-3h11.2v3h-3.9v14.1H208.3z"/>
			<path class="st1" d="M225.7,222.2v-7.3h-4.9v7.3h-3.4v-17.1h3.4v6.7h4.9v-6.7h3.4v17.1H225.7z"/>
			<path class="st1" d="M232.3,222.2v-17.1h9.1v3h-5.7v4.1h5.3v3h-5.3v7H232.3z"/>
			<path class="st1" d="M251.5,205.1h3.4v11c0,2.1-0.5,3.8-1.5,4.9c-1,1.1-2.4,1.7-4.3,1.7c-1.9,0-3.3-0.6-4.3-1.7s-1.5-2.8-1.5-4.9
				v-11h3.4v11.2c0,1.1,0.2,2,0.6,2.5c0.4,0.5,1,0.8,1.8,0.8c0.8,0,1.4-0.3,1.8-0.8c0.4-0.5,0.6-1.4,0.6-2.5V205.1z"/>
			<path class="st1" d="M257.8,222.2v-17.1h3.4v14.1h6l-0.4,3H257.8z"/>
		</g>
	</g>
	<rect id="Rectangle_249" x="156" y="4457" class="st3" width="276" height="254"/>
</g>
</svg>
